<?xml version="1.0" encoding="UTF-8"?>
<svg width="37px" height="370px" viewBox="0 0 37 370" version="1.1" xmlns="http://www.w3.org/2000/svg" xmlns:xlink="http://www.w3.org/1999/xlink">
    <!-- Generator: Sketch 43.2 (39069) - http://www.bohemiancoding.com/sketch -->
    <title>desktop-logo</title>
    <desc>Created with Sketch.</desc>
    <defs></defs>
    <g id="Page-1" stroke="none" stroke-width="1" fill="none" fill-rule="evenodd">
        <g id="desktop-logo" fill-rule="nonzero" fill="#C03B2B">
            <path d="M-134.856,168.16 C-133.351992,168.16 -132.120005,168.112 -131.16,168.016 L-131.16,168.976 C-131.992004,169.392002 -132.831996,170.143995 -133.68,171.232 C-134.528004,172.320005 -135.287997,173.807991 -135.96,175.696 L-145.32,202 C-146.344005,201.936 -147.191997,201.904 -147.864,201.904 C-148.504003,201.904 -149.335995,201.936 -150.36,202 L-162.936,172.048 C-163.352002,171.023995 -163.807998,170.264002 -164.304,169.768 C-164.800002,169.271998 -165.287998,169.008 -165.768,168.976 L-165.768,168.016 C-163.463988,168.112 -160.552018,168.16 -157.032,168.16 C-153.383982,168.16 -150.696009,168.112 -148.968,168.016 L-148.968,168.976 C-150.184006,169.04 -151.047997,169.183999 -151.56,169.408 C-152.072003,169.632001 -152.328,170.079997 -152.328,170.752 C-152.328,171.296003 -152.136002,172.047995 -151.752,173.008 L-143.448,193.456 L-138.792,180.4 C-137.735995,177.455985 -137.208,175.088009 -137.208,173.296 C-137.208,170.511986 -138.519987,169.072 -141.144,168.976 L-141.144,168.016 C-138.743988,168.112 -136.648009,168.16 -134.856,168.16 Z M-113.832,168.976 C-114.856005,169.04 -115.599998,169.167999 -116.064,169.36 C-116.528002,169.552001 -116.839999,169.919997 -117,170.464 C-117.160001,171.008003 -117.24,171.887994 -117.24,173.104 L-117.24,196.912 C-117.24,198.128006 -117.152001,199.007997 -116.976,199.552 C-116.799999,200.096003 -116.488002,200.463999 -116.04,200.656 C-115.591998,200.848001 -114.856005,200.976 -113.832,201.04 L-113.832,202 C-115.688009,201.904 -118.359983,201.856 -121.848,201.856 C-125.720019,201.856 -128.567991,201.904 -130.392,202 L-130.392,201.04 C-129.367995,200.976 -128.624002,200.848001 -128.16,200.656 C-127.695998,200.463999 -127.384001,200.096003 -127.224,199.552 C-127.063999,199.007997 -126.984,198.128006 -126.984,196.912 L-126.984,173.104 C-126.984,171.887994 -127.071999,171.008003 -127.248,170.464 C-127.424001,169.919997 -127.735998,169.552001 -128.184,169.36 C-128.632002,169.167999 -129.367995,169.04 -130.392,168.976 L-130.392,168.016 C-128.567991,168.112 -125.720019,168.16 -121.848,168.16 C-118.391983,168.16 -115.720009,168.112 -113.832,168.016 L-113.832,168.976 Z M-78.456,198.112 C-78.0079978,198.848004 -77.5760021,199.431998 -77.16,199.864 C-76.7439979,200.296002 -76.2000034,200.687998 -75.528,201.04 L-75.528,202 C-78.2160134,201.904 -81.0959846,201.856 -84.168,201.856 C-86.5360118,201.856 -88.823989,201.904 -91.032,202 L-91.032,201.04 C-90.0079949,200.976 -89.296002,200.888001 -88.896,200.776 C-88.495998,200.663999 -88.296,200.448002 -88.296,200.128 C-88.296,199.807998 -88.4559984,199.392003 -88.776,198.88 L-95.736,187.12 C-96.1840022,186.351996 -96.5599985,185.824001 -96.864,185.536 C-97.1680015,185.247999 -97.5439978,185.072 -97.992,185.008 L-97.992,196.912 C-97.992,198.128006 -97.9040009,199.007997 -97.728,199.552 C-97.5519991,200.096003 -97.2400022,200.463999 -96.792,200.656 C-96.3439978,200.848001 -95.6080051,200.976 -94.584,201.04 L-94.584,202 C-96.4400093,201.904 -99.1119826,201.856 -102.6,201.856 C-106.472019,201.856 -109.319991,201.904 -111.144,202 L-111.144,201.04 C-110.119995,200.976 -109.376002,200.848001 -108.912,200.656 C-108.447998,200.463999 -108.136001,200.096003 -107.976,199.552 C-107.815999,199.007997 -107.736,198.128006 -107.736,196.912 L-107.736,173.104 C-107.736,171.887994 -107.823999,171.008003 -108,170.464 C-108.176001,169.919997 -108.487998,169.552001 -108.936,169.36 C-109.384002,169.167999 -110.119995,169.04 -111.144,168.976 L-111.144,168.016 C-109.319991,168.112 -106.472019,168.16 -102.6,168.16 C-99.1439827,168.16 -96.4720094,168.112 -94.584,168.016 L-94.584,168.976 C-95.6080051,169.04 -96.3519977,169.167999 -96.816,169.36 C-97.2800023,169.552001 -97.5919992,169.919997 -97.752,170.464 C-97.9120008,171.008003 -97.992,171.887994 -97.992,173.104 L-97.992,183.952 C-96.7119936,183.856 -95.4640061,183.376004 -94.248,182.512 C-93.0319939,181.647996 -91.5440088,180.22401 -89.784,178.24 L-88.152,176.416 C-86.743993,174.815992 -86.04,173.376006 -86.04,172.096 C-86.04,171.167995 -86.4079963,170.424003 -87.144,169.864 C-87.8800037,169.303997 -88.8239942,168.992 -89.976,168.928 L-89.976,168.016 C-87.2879866,168.112 -84.5840136,168.16 -81.864,168.16 C-79.9119902,168.16 -78.2960064,168.112 -77.016,168.016 L-77.016,168.928 C-79.8000139,169.664004 -82.4239877,171.423986 -84.888,174.208 L-89.592,179.536 L-78.456,198.112 Z M-58.392,168.976 C-59.4160051,169.04 -60.1599977,169.167999 -60.624,169.36 C-61.0880023,169.552001 -61.3999992,169.919997 -61.56,170.464 C-61.7200008,171.008003 -61.8,171.887994 -61.8,173.104 L-61.8,196.912 C-61.8,198.128006 -61.7120009,199.007997 -61.536,199.552 C-61.3599991,200.096003 -61.0480022,200.463999 -60.6,200.656 C-60.1519978,200.848001 -59.4160051,200.976 -58.392,201.04 L-58.392,202 C-60.2480093,201.904 -62.9199826,201.856 -66.408,201.856 C-70.2800194,201.856 -73.1279909,201.904 -74.952,202 L-74.952,201.04 C-73.9279949,200.976 -73.1840023,200.848001 -72.72,200.656 C-72.2559977,200.463999 -71.9440008,200.096003 -71.784,199.552 C-71.6239992,199.007997 -71.544,198.128006 -71.544,196.912 L-71.544,173.104 C-71.544,171.887994 -71.6319991,171.008003 -71.808,170.464 C-71.9840009,169.919997 -72.2959978,169.552001 -72.744,169.36 C-73.1920022,169.167999 -73.9279949,169.04 -74.952,168.976 L-74.952,168.016 C-73.1279909,168.112 -70.2800194,168.16 -66.408,168.16 C-62.9519827,168.16 -60.2800094,168.112 -58.392,168.016 L-58.392,168.976 Z M-23.064,168.976 C-24.056005,169.200001 -24.7919976,169.543998 -25.272,170.008 C-25.7520024,170.472002 -26.0719992,171.183995 -26.232,172.144 C-26.3920008,173.104005 -26.472,174.54399 -26.472,176.464 L-26.472,202 C-27.1120032,201.936 -27.6399979,201.904 -28.056,201.904 C-28.4080018,201.904 -28.9999958,201.936 -29.832,202 L-51.096,178.768 L-51.096,192.592 C-51.096,194.960012 -51.000001,196.663995 -50.808,197.704 C-50.615999,198.744005 -50.1920033,199.503998 -49.536,199.984 C-48.8799967,200.464002 -47.7840077,200.815999 -46.248,201.04 L-46.248,202 C-47.5600066,201.904 -49.3519886,201.856 -51.624,201.856 C-53.3200085,201.856 -54.6479952,201.904 -55.608,202 L-55.608,201.04 C-54.615995,200.815999 -53.8800024,200.472002 -53.4,200.008 C-52.9199976,199.543998 -52.6000008,198.832005 -52.44,197.872 C-52.2799992,196.911995 -52.2,195.47201 -52.2,193.552 L-52.2,173.104 C-52.2,171.887994 -52.2879991,171.008003 -52.464,170.464 C-52.6400009,169.919997 -52.9519978,169.552001 -53.4,169.36 C-53.8480022,169.167999 -54.5839949,169.04 -55.608,168.976 L-55.608,168.016 C-54.6479952,168.112 -53.3200085,168.16 -51.624,168.16 C-49.8959914,168.16 -48.4240061,168.112 -47.208,168.016 L-27.576,188.752 L-27.576,177.424 C-27.576,175.055988 -27.671999,173.352005 -27.864,172.312 C-28.056001,171.271995 -28.4799967,170.512002 -29.136,170.032 C-29.7920033,169.551998 -30.8879923,169.200001 -32.424,168.976 L-32.424,168.016 C-31.1119934,168.112 -29.3200114,168.16 -27.048,168.16 C-25.3519915,168.16 -24.0240048,168.112 -23.064,168.016 L-23.064,168.976 Z M-1.896,167.344 C0.15201024,167.344 1.91199264,167.615997 3.384,168.16 C4.85600736,168.704003 6.19999392,169.471995 7.416,170.464 C7.76800176,170.752001 8.08799856,170.896 8.376,170.896 C8.6960016,170.896 8.95199904,170.664002 9.144,170.2 C9.33600096,169.735998 9.47999952,169.008005 9.576,168.016 L10.68,168.016 C10.5519994,170.288011 10.488,174.287971 10.488,180.016 L9.384,180.016 C9.15999888,177.487987 8.74400304,175.488007 8.136,174.016 C7.52799696,172.543993 6.47200752,171.296005 4.968,170.272 C4.29599664,169.823998 3.5200044,169.472001 2.64,169.216 C1.7599956,168.959999 0.88800432,168.832 0.024,168.832 C-2.28001152,168.832 -4.14399288,169.639992 -5.568,171.256 C-6.99200712,172.872008 -7.99999704,174.911988 -8.592,177.376 C-9.18400296,179.840012 -9.48,182.415987 -9.48,185.104 C-9.48,190.672028 -8.8000068,194.831986 -7.44,197.584 C-6.0799932,200.336014 -4.18401216,201.712 -1.752,201.712 C-0.75999504,201.712 0.02399712,201.520002 0.6,201.136 C1.27200336,200.655998 1.608,199.856006 1.608,198.736 L1.608,193.936 C1.608,192.335992 1.48000128,191.160004 1.224,190.408 C0.96799872,189.655996 0.51200328,189.144001 -0.144,188.872 C-0.80000328,188.599999 -1.83199296,188.432 -3.24,188.368 L-3.24,187.408 C-1.06398912,187.504 1.99198032,187.552 5.928,187.552 C9.22401648,187.552 11.6879918,187.504 13.32,187.408 L13.32,188.368 C12.7439971,188.432 12.3200014,188.559999 12.048,188.752 C11.7759986,188.944001 11.5920005,189.311997 11.496,189.856 C11.3999995,190.400003 11.352,191.279994 11.352,192.496 L11.352,202 L10.392,202 C10.3599998,201.327997 10.2160013,200.704003 9.96,200.128 C9.70399872,199.551997 9.35200224,199.264 8.904,199.264 C8.23199664,199.264 7.14400752,199.631996 5.64,200.368 C2.439984,201.904008 -0.26398896,202.672 -2.472,202.672 C-8.42402976,202.672 -12.9199848,201.168015 -15.96,198.16 C-19.0000152,195.151985 -20.52,190.864028 -20.52,185.296 C-20.52,181.775982 -19.7280079,178.656014 -18.144,175.936 C-16.5599921,173.215986 -14.3600141,171.104008 -11.544,169.6 C-8.72798592,168.095992 -5.51201808,167.344 -1.896,167.344 Z M66.792,168.016 C66.5679989,171.568018 66.456,174.735986 66.456,177.52 C66.456,178.992007 66.5039995,180.143996 66.6,180.976 L65.496,180.976 C64.4399947,176.783979 63.0800083,173.760009 61.416,171.904 C59.7519917,170.047991 57.9600096,169.12 56.04,169.12 L55.992,169.12 L55.992,196.576 C55.992,197.920007 56.1279986,198.895997 56.4,199.504 C56.6720014,200.112003 57.1679964,200.519999 57.888,200.728 C58.6080036,200.936001 59.7519922,201.04 61.32,201.04 L61.32,202 C56.8079774,201.904 53.3040125,201.856 50.808,201.856 C48.5359886,201.856 45.2400216,201.904 40.92,202 L40.92,201.04 C42.4880078,201.04 43.6319964,200.936001 44.352,200.728 C45.0720036,200.519999 45.5679986,200.112003 45.84,199.504 C46.1120014,198.895997 46.248,197.920007 46.248,196.576 L46.248,169.12 L46.2,169.12 C44.2479902,169.12 42.4480082,170.039991 40.8,171.88 C39.1519918,173.720009 37.8000053,176.751979 36.744,180.976 L35.64,180.976 C35.7360005,180.143996 35.784,178.992007 35.784,177.52 C35.784,174.735986 35.6720011,171.568018 35.448,168.016 C38.4880152,168.112 43.7199629,168.16 51.144,168.16 C58.536037,168.16 63.7519848,168.112 66.792,168.016 Z M87.768,167.344 C91.3840181,167.344 94.5519864,168.031993 97.272,169.408 C99.9920136,170.784007 102.103992,172.775987 103.608,175.384 C105.112008,177.992013 105.864,181.103982 105.864,184.72 C105.864,188.240018 105.096008,191.359986 103.56,194.08 C102.023992,196.800014 99.8800138,198.911992 97.128,200.416 C94.3759862,201.920008 91.2400176,202.672 87.72,202.672 C84.1039819,202.672 80.9360136,201.984007 78.216,200.608 C75.4959864,199.231993 73.3840075,197.240013 71.88,194.632 C70.3759925,192.023987 69.624,188.912018 69.624,185.296 C69.624,181.775982 70.3919923,178.656014 71.928,175.936 C73.4640077,173.215986 75.6079862,171.104008 78.36,169.6 C81.1120138,168.095992 84.2479824,167.344 87.768,167.344 Z M87.576,168.208 C86.0079922,168.208 84.624006,168.919993 83.424,170.344 C82.223994,171.768007 81.3040032,173.759987 80.664,176.32 C80.0239968,178.880013 79.704,181.807984 79.704,185.104 C79.704,188.432017 80.0719963,191.359987 80.808,193.888 C81.5440037,196.416013 82.5359938,198.367993 83.784,199.744 C85.0320062,201.120007 86.4079925,201.808 87.912,201.808 C89.4800078,201.808 90.863994,201.096007 92.064,199.672 C93.264006,198.247993 94.1839968,196.256013 94.824,193.696 C95.4640032,191.135987 95.784,188.208016 95.784,184.912 C95.784,181.583983 95.4160037,178.656013 94.68,176.128 C93.9439963,173.599987 92.9520062,171.648007 91.704,170.272 C90.4559938,168.895993 89.0800075,168.208 87.576,168.208 Z M140.04,168.976 C139.047995,169.200001 138.312002,169.543998 137.832,170.008 C137.351998,170.472002 137.032001,171.183995 136.872,172.144 C136.711999,173.104005 136.632,174.54399 136.632,176.464 L136.632,188.032 C136.632,192.640023 135.976007,196.031989 134.664,198.208 C133.799996,199.648007 132.528008,200.751996 130.848,201.52 C129.167992,202.288004 127.000013,202.672 124.344,202.672 C120.471981,202.672 117.464011,201.904008 115.32,200.368 C113.751992,199.247994 112.704003,197.744009 112.176,195.856 C111.647997,193.967991 111.384,191.408016 111.384,188.176 L111.384,173.104 C111.384,171.887994 111.304001,171.008003 111.144,170.464 C110.983999,169.919997 110.672002,169.552001 110.208,169.36 C109.743998,169.167999 109.000005,169.04 107.976,168.976 L107.976,168.016 C109.800009,168.112 112.615981,168.16 116.424,168.16 C120.200019,168.16 123.06399,168.112 125.016,168.016 L125.016,168.976 C123.863994,169.04 123.024003,169.167999 122.496,169.36 C121.967997,169.552001 121.608001,169.919997 121.416,170.464 C121.223999,171.008003 121.128,171.887994 121.128,173.104 L121.128,192.688 C121.128,195.760015 121.607995,197.911994 122.568,199.144 C123.528005,200.376006 125.04799,200.992 127.128,200.992 C130.168015,200.992 132.327994,199.912011 133.608,197.752 C134.888006,195.591989 135.528,192.52802 135.528,188.56 L135.528,177.424 C135.528,175.055988 135.432001,173.352005 135.24,172.312 C135.047999,171.271995 134.624003,170.512002 133.968,170.032 C133.311997,169.551998 132.216008,169.200001 130.68,168.976 L130.68,168.016 C131.992007,168.112 133.783989,168.16 136.056,168.16 C137.752008,168.16 139.079995,168.112 140.04,168.016 L140.04,168.976 Z M176.424,200.08 C175.463995,201.040005 174.408006,201.711998 173.256,202.096 C172.103994,202.480002 170.760008,202.672 169.224,202.672 C167.015989,202.672 165.304006,202.280004 164.088,201.496 C162.871994,200.711996 162.120001,199.376009 161.832,197.488 L161.112,192.688 C160.791998,190.447989 160.352003,188.752006 159.792,187.6 C159.231997,186.447994 158.392006,185.872 157.272,185.872 L155.112,185.872 L155.112,196.912 C155.112,198.128006 155.199999,199.007997 155.376,199.552 C155.552001,200.096003 155.863998,200.463999 156.312,200.656 C156.760002,200.848001 157.495995,200.976 158.52,201.04 L158.52,202 C156.663991,201.904 153.992017,201.856 150.504,201.856 C146.631981,201.856 143.784009,201.904 141.96,202 L141.96,201.04 C142.984005,200.976 143.727998,200.848001 144.192,200.656 C144.656002,200.463999 144.967999,200.096003 145.128,199.552 C145.288001,199.007997 145.368,198.128006 145.368,196.912 L145.368,173.104 C145.368,171.887994 145.280001,171.008003 145.104,170.464 C144.927999,169.919997 144.616002,169.552001 144.168,169.36 C143.719998,169.167999 142.984005,169.04 141.96,168.976 L141.96,168.016 C143.784009,168.112 146.535982,168.16 150.216,168.16 L155.736,168.112 C156.376003,168.08 157.111996,168.064 157.944,168.064 C162.808024,168.064 166.431988,168.751993 168.816,170.128 C171.200012,171.504007 172.392,173.599986 172.392,176.416 C172.392,178.816012 171.496009,180.863992 169.704,182.56 C167.911991,184.256008 164.904021,185.295998 160.68,185.68 C163.944016,185.904001 166.407992,186.519995 168.072,187.528 C169.736008,188.536005 170.759998,190.01599 171.144,191.968 L172.152,196.96 C172.376001,198.144006 172.647998,198.959998 172.968,199.408 C173.288002,199.856002 173.735997,200.08 174.312,200.08 C174.888003,200.08 175.383998,199.872002 175.8,199.456 L176.424,200.08 Z M157.704,168.976 C156.967996,168.976 156.416002,169.087999 156.048,169.312 C155.679998,169.536001 155.432001,169.935997 155.304,170.512 C155.175999,171.088003 155.112,171.951994 155.112,173.104 L155.112,184.912 L156.408,184.912 C158.680011,184.912 160.231996,184.216007 161.064,182.824 C161.896004,181.431993 162.312,179.472013 162.312,176.944 C162.312,174.319987 161.952004,172.336007 161.232,170.992 C160.511996,169.647993 159.336008,168.976 157.704,168.976 Z M189.72,167.344 C191.544009,167.344 193.023994,167.511998 194.16,167.848 C195.296006,168.184002 196.407995,168.655997 197.496,169.264 C197.848002,169.456001 198.159999,169.615999 198.432,169.744 C198.704001,169.872001 198.935999,169.936 199.128,169.936 C199.416001,169.936 199.639999,169.768002 199.8,169.432 C199.960001,169.095998 200.088,168.560004 200.184,167.824 L201.288,167.824 C201.127999,170.128012 201.048,174.031972 201.048,179.536 L199.944,179.536 C199.815999,177.711991 199.400004,175.968008 198.696,174.304 C197.991996,172.639992 197.032006,171.280005 195.816,170.224 C194.599994,169.167995 193.192008,168.64 191.592,168.64 C190.119993,168.64 188.936004,169.031996 188.04,169.816 C187.143996,170.600004 186.696,171.695993 186.696,173.104 C186.696,174.192005 186.935998,175.135996 187.416,175.936 C187.896002,176.736004 188.599995,177.511996 189.528,178.264 C190.456005,179.016004 191.975989,180.127993 194.088,181.6 C194.280001,181.696 194.463999,181.807999 194.64,181.936 C194.816001,182.064001 194.983999,182.191999 195.144,182.32 C196.904009,183.536006 198.311995,184.615995 199.368,185.56 C200.424005,186.504005 201.279997,187.599994 201.936,188.848 C202.592003,190.096006 202.92,191.535992 202.92,193.168 C202.92,195.24801 202.336006,196.999993 201.168,198.424 C199.999994,199.848007 198.42401,200.911996 196.44,201.616 C194.45599,202.320004 192.264012,202.672 189.864,202.672 C187.91199,202.672 186.288006,202.512002 184.992,202.192 C183.695994,201.871998 182.488006,201.440003 181.368,200.896 C180.663996,200.447998 180.120002,200.224 179.736,200.224 C179.447999,200.224 179.224001,200.391998 179.064,200.728 C178.903999,201.064002 178.776,201.599996 178.68,202.336 L177.576,202.336 C177.704001,200.159989 177.768,195.520036 177.768,188.416 L178.872,188.416 C179.096001,192.224019 179.895993,195.311988 181.272,197.68 C182.648007,200.048012 184.759986,201.232 187.608,201.232 C189.368009,201.232 190.767995,200.816004 191.808,199.984 C192.848005,199.151996 193.368,198.000007 193.368,196.528 C193.368,194.703991 192.800006,193.144006 191.664,191.848 C190.527994,190.551994 188.760012,189.104008 186.36,187.504 C184.43999,186.223994 182.904006,185.104005 181.752,184.144 C180.599994,183.183995 179.656004,182.072006 178.92,180.808 C178.183996,179.543994 177.816,178.080008 177.816,176.416 C177.816,174.39999 178.359995,172.712007 179.448,171.352 C180.536005,169.991993 181.983991,168.984003 183.792,168.328 C185.600009,167.671997 187.575989,167.344 189.72,167.344 Z" id="VIKING-TOURS-Copy" transform="translate(18.576000, 185.008000) rotate(-90.000000) translate(-18.576000, -185.008000) "></path>
        </g>
    </g>
</svg>