<?xml version="1.0" encoding="UTF-8"?>
<svg width="369px" height="36px" viewBox="0 0 369 36" version="1.1" xmlns="http://www.w3.org/2000/svg" xmlns:xlink="http://www.w3.org/1999/xlink">
    <!-- Generator: Sketch 43.2 (39069) - http://www.bohemiancoding.com/sketch -->
    <title>mobile-logo</title>
    <desc>Created with Sketch.</desc>
    <defs></defs>
    <g id="Page-1" stroke="none" stroke-width="1" fill="none" fill-rule="evenodd">
        <g id="mobile-logo" fill-rule="nonzero" fill="#C03B2B">
            <path d="M31.144,1.16 C32.6480075,1.16 33.8799952,1.11200048 34.84,1.016 L34.84,1.976 C34.0079958,2.39200208 33.1680042,3.14399456 32.32,4.232 C31.4719958,5.32000544 30.7120034,6.80799056 30.04,8.696 L20.68,35 C19.6559949,34.9359997 18.8080034,34.904 18.136,34.904 C17.4959968,34.904 16.6640051,34.9359997 15.64,35 L3.064,5.048 C2.64799792,4.02399488 2.19200248,3.26400248 1.696,2.768 C1.19999752,2.27199752 0.7120024,2.00800016 0.232,1.976 L0.232,1.016 C2.53601152,1.11200048 5.4479824,1.16 8.968,1.16 C12.6160182,1.16 15.3039914,1.11200048 17.032,1.016 L17.032,1.976 C15.8159939,2.04000032 14.9520026,2.18399888 14.44,2.408 C13.9279974,2.63200112 13.672,3.07999664 13.672,3.752 C13.672,4.29600272 13.8639981,5.0479952 14.248,6.008 L22.552,26.456 L27.208,13.4 C28.2640053,10.4559853 28.792,8.08800896 28.792,6.296 C28.792,3.51198608 27.4800131,2.07200048 24.856,1.976 L24.856,1.016 C27.256012,1.11200048 29.351991,1.16 31.144,1.16 Z M52.168,1.976 C51.1439949,2.04000032 50.4000023,2.16799904 49.936,2.36 C49.4719977,2.55200096 49.1600008,2.91999728 49,3.464 C48.8399992,4.00800272 48.76,4.88799392 48.76,6.104 L48.76,29.912 C48.76,31.1280061 48.8479991,32.0079973 49.024,32.552 C49.2000009,33.0960027 49.5119978,33.463999 49.96,33.656 C50.4080022,33.848001 51.1439949,33.9759997 52.168,34.04 L52.168,35 C50.3119907,34.9039995 47.6400174,34.856 44.152,34.856 C40.2799806,34.856 37.4320091,34.9039995 35.608,35 L35.608,34.04 C36.6320051,33.9759997 37.3759977,33.848001 37.84,33.656 C38.3040023,33.463999 38.6159992,33.0960027 38.776,32.552 C38.9360008,32.0079973 39.016,31.1280061 39.016,29.912 L39.016,6.104 C39.016,4.88799392 38.9280009,4.00800272 38.752,3.464 C38.5759991,2.91999728 38.2640022,2.55200096 37.816,2.36 C37.3679978,2.16799904 36.6320051,2.04000032 35.608,1.976 L35.608,1.016 C37.4320091,1.11200048 40.2799806,1.16 44.152,1.16 C47.6080173,1.16 50.2799906,1.11200048 52.168,1.016 L52.168,1.976 Z M87.544,31.112 C87.9920022,31.8480037 88.4239979,32.4319978 88.84,32.864 C89.2560021,33.2960022 89.7999966,33.6879982 90.472,34.04 L90.472,35 C87.7839866,34.9039995 84.9040154,34.856 81.832,34.856 C79.4639882,34.856 77.176011,34.9039995 74.968,35 L74.968,34.04 C75.9920051,33.9759997 76.703998,33.8880006 77.104,33.776 C77.504002,33.6639994 77.704,33.4480016 77.704,33.128 C77.704,32.8079984 77.5440016,32.3920026 77.224,31.88 L70.264,20.12 C69.8159978,19.3519962 69.4400015,18.8240014 69.136,18.536 C68.8319985,18.2479986 68.4560022,18.0720003 68.008,18.008 L68.008,29.912 C68.008,31.1280061 68.0959991,32.0079973 68.272,32.552 C68.4480009,33.0960027 68.7599978,33.463999 69.208,33.656 C69.6560022,33.848001 70.3919949,33.9759997 71.416,34.04 L71.416,35 C69.5599907,34.9039995 66.8880174,34.856 63.4,34.856 C59.5279806,34.856 56.6800091,34.9039995 54.856,35 L54.856,34.04 C55.8800051,33.9759997 56.6239977,33.848001 57.088,33.656 C57.5520023,33.463999 57.8639992,33.0960027 58.024,32.552 C58.1840008,32.0079973 58.264,31.1280061 58.264,29.912 L58.264,6.104 C58.264,4.88799392 58.1760009,4.00800272 58,3.464 C57.8239991,2.91999728 57.5120022,2.55200096 57.064,2.36 C56.6159978,2.16799904 55.8800051,2.04000032 54.856,1.976 L54.856,1.016 C56.6800091,1.11200048 59.5279806,1.16 63.4,1.16 C66.8560173,1.16 69.5279906,1.11200048 71.416,1.016 L71.416,1.976 C70.3919949,2.04000032 69.6480023,2.16799904 69.184,2.36 C68.7199977,2.55200096 68.4080008,2.91999728 68.248,3.464 C68.0879992,4.00800272 68.008,4.88799392 68.008,6.104 L68.008,16.952 C69.2880064,16.8559995 70.5359939,16.3760043 71.752,15.512 C72.9680061,14.6479957 74.4559912,13.2240099 76.216,11.24 L77.848,9.416 C79.256007,7.815992 79.96,6.3760064 79.96,5.096 C79.96,4.16799536 79.5920037,3.4240028 78.856,2.864 C78.1199963,2.3039972 77.1760058,1.99200032 76.024,1.928 L76.024,1.016 C78.7120134,1.11200048 81.4159864,1.16 84.136,1.16 C86.0880098,1.16 87.7039936,1.11200048 88.984,1.016 L88.984,1.928 C86.1999861,2.66400368 83.5760123,4.42398608 81.112,7.208 L76.408,12.536 L87.544,31.112 Z M107.608,1.976 C106.583995,2.04000032 105.840002,2.16799904 105.376,2.36 C104.911998,2.55200096 104.600001,2.91999728 104.44,3.464 C104.279999,4.00800272 104.2,4.88799392 104.2,6.104 L104.2,29.912 C104.2,31.1280061 104.287999,32.0079973 104.464,32.552 C104.640001,33.0960027 104.951998,33.463999 105.4,33.656 C105.848002,33.848001 106.583995,33.9759997 107.608,34.04 L107.608,35 C105.751991,34.9039995 103.080017,34.856 99.592,34.856 C95.7199806,34.856 92.8720091,34.9039995 91.048,35 L91.048,34.04 C92.0720051,33.9759997 92.8159977,33.848001 93.28,33.656 C93.7440023,33.463999 94.0559992,33.0960027 94.216,32.552 C94.3760008,32.0079973 94.456,31.1280061 94.456,29.912 L94.456,6.104 C94.456,4.88799392 94.3680009,4.00800272 94.192,3.464 C94.0159991,2.91999728 93.7040022,2.55200096 93.256,2.36 C92.8079978,2.16799904 92.0720051,2.04000032 91.048,1.976 L91.048,1.016 C92.8720091,1.11200048 95.7199806,1.16 99.592,1.16 C103.048017,1.16 105.719991,1.11200048 107.608,1.016 L107.608,1.976 Z M142.936,1.976 C141.943995,2.20000112 141.208002,2.54399768 140.728,3.008 C140.247998,3.47200232 139.928001,4.1839952 139.768,5.144 C139.607999,6.1040048 139.528,7.5439904 139.528,9.464 L139.528,35 C138.887997,34.9359997 138.360002,34.904 137.944,34.904 C137.591998,34.904 137.000004,34.9359997 136.168,35 L114.904,11.768 L114.904,25.592 C114.904,27.9600118 114.999999,29.6639948 115.192,30.704 C115.384001,31.7440052 115.807997,32.5039976 116.464,32.984 C117.120003,33.4640024 118.215992,33.8159989 119.752,34.04 L119.752,35 C118.439993,34.9039995 116.648011,34.856 114.376,34.856 C112.679992,34.856 111.352005,34.9039995 110.392,35 L110.392,34.04 C111.384005,33.8159989 112.119998,33.4720023 112.6,33.008 C113.080002,32.5439977 113.399999,31.8320048 113.56,30.872 C113.720001,29.9119952 113.8,28.4720096 113.8,26.552 L113.8,6.104 C113.8,4.88799392 113.712001,4.00800272 113.536,3.464 C113.359999,2.91999728 113.048002,2.55200096 112.6,2.36 C112.151998,2.16799904 111.416005,2.04000032 110.392,1.976 L110.392,1.016 C111.352005,1.11200048 112.679992,1.16 114.376,1.16 C116.104009,1.16 117.575994,1.11200048 118.792,1.016 L138.424,21.752 L138.424,10.424 C138.424,8.05598816 138.328001,6.3520052 138.136,5.312 C137.943999,4.2719948 137.520003,3.5120024 136.864,3.032 C136.207997,2.5519976 135.112008,2.20000112 133.576,1.976 L133.576,1.016 C134.888007,1.11200048 136.679989,1.16 138.952,1.16 C140.648008,1.16 141.975995,1.11200048 142.936,1.016 L142.936,1.976 Z M164.104,0.344 C166.15201,0.344 167.911993,0.61599728 169.384,1.16 C170.856007,1.70400272 172.199994,2.47199504 173.416,3.464 C173.768002,3.75200144 174.087999,3.896 174.376,3.896 C174.696002,3.896 174.951999,3.66400232 175.144,3.2 C175.336001,2.73599768 175.48,2.00800496 175.576,1.016 L176.68,1.016 C176.551999,3.28801136 176.488,7.28797136 176.488,13.016 L175.384,13.016 C175.159999,10.4879874 174.744003,8.48800736 174.136,7.016 C173.527997,5.54399264 172.472008,4.29600512 170.968,3.272 C170.295997,2.82399776 169.520004,2.47200128 168.64,2.216 C167.759996,1.95999872 166.888004,1.832 166.024,1.832 C163.719988,1.832 161.856007,2.63999192 160.432,4.256 C159.007993,5.87200808 158.000003,7.91198768 157.408,10.376 C156.815997,12.8400123 156.52,15.4159866 156.52,18.104 C156.52,23.6720278 157.199993,27.8319862 158.56,30.584 C159.920007,33.3360138 161.815988,34.712 164.248,34.712 C165.240005,34.712 166.023997,34.5200019 166.6,34.136 C167.272003,33.6559976 167.608,32.8560056 167.608,31.736 L167.608,26.936 C167.608,25.335992 167.480001,24.1600038 167.224,23.408 C166.967999,22.6559962 166.512003,22.1440014 165.856,21.872 C165.199997,21.5999986 164.168007,21.4320003 162.76,21.368 L162.76,20.408 C164.936011,20.5040005 167.99198,20.552 171.928,20.552 C175.224016,20.552 177.687992,20.5040005 179.32,20.408 L179.32,21.368 C178.743997,21.4320003 178.320001,21.559999 178.048,21.752 C177.775999,21.944001 177.592,22.3119973 177.496,22.856 C177.4,23.4000027 177.352,24.2799939 177.352,25.496 L177.352,35 L176.392,35 C176.36,34.3279966 176.216001,33.7040029 175.96,33.128 C175.703999,32.5519971 175.352002,32.264 174.904,32.264 C174.231997,32.264 173.144008,32.6319963 171.64,33.368 C168.439984,34.9040077 165.736011,35.672 163.528,35.672 C157.57597,35.672 153.080015,34.168015 150.04,31.16 C146.999985,28.151985 145.48,23.8640278 145.48,18.296 C145.48,14.7759824 146.271992,11.6560136 147.856,8.936 C149.440008,6.2159864 151.639986,4.10400752 154.456,2.6 C157.272014,1.09599248 160.487982,0.344 164.104,0.344 Z M232.792,1.016 C232.567999,4.56801776 232.456,7.73598608 232.456,10.52 C232.456,11.9920074 232.504,13.1439958 232.6,13.976 L231.496,13.976 C230.439995,9.78397904 229.080008,6.76000928 227.416,4.904 C225.751992,3.04799072 223.96001,2.12 222.04,2.12 L221.992,2.12 L221.992,29.576 C221.992,30.9200067 222.127999,31.895997 222.4,32.504 C222.672001,33.112003 223.167996,33.519999 223.888,33.728 C224.608004,33.936001 225.751992,34.04 227.32,34.04 L227.32,35 C222.807977,34.9039995 219.304012,34.856 216.808,34.856 C214.535989,34.856 211.240022,34.9039995 206.92,35 L206.92,34.04 C208.488008,34.04 209.631996,33.936001 210.352,33.728 C211.072004,33.519999 211.567999,33.112003 211.84,32.504 C212.112001,31.895997 212.248,30.9200067 212.248,29.576 L212.248,2.12 L212.2,2.12 C210.24799,2.12 208.448008,3.0399908 206.8,4.88 C205.151992,6.7200092 203.800005,9.75197888 202.744,13.976 L201.64,13.976 C201.736,13.1439958 201.784,11.9920074 201.784,10.52 C201.784,7.73598608 201.672001,4.56801776 201.448,1.016 C204.488015,1.11200048 209.719963,1.16 217.144,1.16 C224.536037,1.16 229.751985,1.11200048 232.792,1.016 Z M253.768,0.344 C257.384018,0.344 260.551986,1.03199312 263.272,2.408 C265.992014,3.78400688 268.103992,5.77598696 269.608,8.384 C271.112008,10.992013 271.864,14.1039819 271.864,17.72 C271.864,21.2400176 271.096008,24.3599864 269.56,27.08 C268.023992,29.8000136 265.880014,31.9119925 263.128,33.416 C260.375986,34.9200075 257.240018,35.672 253.72,35.672 C250.103982,35.672 246.936014,34.9840069 244.216,33.608 C241.495986,32.2319931 239.384008,30.240013 237.88,27.632 C236.375992,25.023987 235.624,21.9120181 235.624,18.296 C235.624,14.7759824 236.391992,11.6560136 237.928,8.936 C239.464008,6.2159864 241.607986,4.10400752 244.36,2.6 C247.112014,1.09599248 250.247982,0.344 253.768,0.344 Z M253.576,1.208 C252.007992,1.208 250.624006,1.91999288 249.424,3.344 C248.223994,4.76800712 247.304003,6.7599872 246.664,9.32 C246.023997,11.8800128 245.704,14.8079835 245.704,18.104 C245.704,21.4320166 246.071996,24.3599874 246.808,26.888 C247.544004,29.4160126 248.535994,31.3679931 249.784,32.744 C251.032006,34.1200069 252.407992,34.808 253.912,34.808 C255.480008,34.808 256.863994,34.0960071 258.064,32.672 C259.264006,31.2479929 260.183997,29.2560128 260.824,26.696 C261.464003,24.1359872 261.784,21.2080165 261.784,17.912 C261.784,14.5839834 261.416004,11.6560126 260.68,9.128 C259.943996,6.59998736 258.952006,4.64800688 257.704,3.272 C256.455994,1.89599312 255.080008,1.208 253.576,1.208 Z M306.04,1.976 C305.047995,2.20000112 304.312002,2.54399768 303.832,3.008 C303.351998,3.47200232 303.032001,4.1839952 302.872,5.144 C302.711999,6.1040048 302.632,7.5439904 302.632,9.464 L302.632,21.032 C302.632,25.640023 301.976007,29.0319891 300.664,31.208 C299.799996,32.6480072 298.528008,33.7519962 296.848,34.52 C295.167992,35.2880038 293.000013,35.672 290.344,35.672 C286.471981,35.672 283.464011,34.9040077 281.32,33.368 C279.751992,32.2479944 278.704003,30.7440094 278.176,28.856 C277.647997,26.9679906 277.384,24.4080162 277.384,21.176 L277.384,6.104 C277.384,4.88799392 277.304001,4.00800272 277.144,3.464 C276.983999,2.91999728 276.672002,2.55200096 276.208,2.36 C275.743998,2.16799904 275.000005,2.04000032 273.976,1.976 L273.976,1.016 C275.800009,1.11200048 278.615981,1.16 282.424,1.16 C286.200019,1.16 289.06399,1.11200048 291.016,1.016 L291.016,1.976 C289.863994,2.04000032 289.024003,2.16799904 288.496,2.36 C287.967997,2.55200096 287.608001,2.91999728 287.416,3.464 C287.223999,4.00800272 287.128,4.88799392 287.128,6.104 L287.128,25.688 C287.128,28.7600154 287.607995,30.9119938 288.568,32.144 C289.528005,33.3760062 291.04799,33.992 293.128,33.992 C296.168015,33.992 298.327994,32.9120108 299.608,30.752 C300.888006,28.5919892 301.528,25.5280198 301.528,21.56 L301.528,10.424 C301.528,8.05598816 301.432001,6.3520052 301.24,5.312 C301.047999,4.2719948 300.624003,3.5120024 299.968,3.032 C299.311997,2.5519976 298.216008,2.20000112 296.68,1.976 L296.68,1.016 C297.992007,1.11200048 299.783989,1.16 302.056,1.16 C303.752008,1.16 305.079995,1.11200048 306.04,1.016 L306.04,1.976 Z M342.424,33.08 C341.463995,34.0400048 340.408006,34.7119981 339.256,35.096 C338.103994,35.4800019 336.760008,35.672 335.224,35.672 C333.015989,35.672 331.304006,35.2800039 330.088,34.496 C328.871994,33.7119961 328.120001,32.3760094 327.832,30.488 L327.112,25.688 C326.791998,23.4479888 326.352003,21.7520058 325.792,20.6 C325.231997,19.4479942 324.392006,18.872 323.272,18.872 L321.112,18.872 L321.112,29.912 C321.112,31.1280061 321.199999,32.0079973 321.376,32.552 C321.552001,33.0960027 321.863998,33.463999 322.312,33.656 C322.760002,33.848001 323.495995,33.9759997 324.52,34.04 L324.52,35 C322.663991,34.9039995 319.992017,34.856 316.504,34.856 C312.631981,34.856 309.784009,34.9039995 307.96,35 L307.96,34.04 C308.984005,33.9759997 309.727998,33.848001 310.192,33.656 C310.656002,33.463999 310.967999,33.0960027 311.128,32.552 C311.288001,32.0079973 311.368,31.1280061 311.368,29.912 L311.368,6.104 C311.368,4.88799392 311.280001,4.00800272 311.104,3.464 C310.927999,2.91999728 310.616002,2.55200096 310.168,2.36 C309.719998,2.16799904 308.984005,2.04000032 307.96,1.976 L307.96,1.016 C309.784009,1.11200048 312.535982,1.16 316.216,1.16 L321.736,1.112 C322.376003,1.07999984 323.111996,1.064 323.944,1.064 C328.808024,1.064 332.431988,1.75199312 334.816,3.128 C337.200012,4.50400688 338.392,6.59998592 338.392,9.416 C338.392,11.816012 337.496009,13.8639915 335.704,15.56 C333.911991,17.2560085 330.904021,18.2959981 326.68,18.68 C329.944016,18.9040011 332.407992,19.519995 334.072,20.528 C335.736008,21.536005 336.759998,23.0159902 337.144,24.968 L338.152,29.96 C338.376001,31.1440059 338.647998,31.9599978 338.968,32.408 C339.288002,32.8560022 339.735997,33.08 340.312,33.08 C340.888003,33.08 341.383998,32.8720021 341.8,32.456 L342.424,33.08 Z M323.704,1.976 C322.967996,1.976 322.416002,2.08799888 322.048,2.312 C321.679998,2.53600112 321.432001,2.93599712 321.304,3.512 C321.175999,4.08800288 321.112,4.95199424 321.112,6.104 L321.112,17.912 L322.408,17.912 C324.680011,17.912 326.231996,17.216007 327.064,15.824 C327.896004,14.431993 328.312,12.4720126 328.312,9.944 C328.312,7.31998688 327.952004,5.33600672 327.232,3.992 C326.511996,2.64799328 325.336008,1.976 323.704,1.976 Z M355.72,0.344 C357.544009,0.344 359.023994,0.51199832 360.16,0.848 C361.296006,1.18400168 362.407995,1.65599696 363.496,2.264 C363.848002,2.45600096 364.159999,2.61599936 364.432,2.744 C364.704001,2.87200064 364.935999,2.936 365.128,2.936 C365.416001,2.936 365.639999,2.76800168 365.8,2.432 C365.960001,2.09599832 366.088,1.56000368 366.184,0.824 L367.288,0.824 C367.127999,3.12801152 367.048,7.03197248 367.048,12.536 L365.944,12.536 C365.815999,10.7119909 365.400004,8.96800832 364.696,7.304 C363.991996,5.63999168 363.032006,4.28000528 361.816,3.224 C360.599994,2.16799472 359.192008,1.64 357.592,1.64 C356.119993,1.64 354.936004,2.03199608 354.04,2.816 C353.143996,3.60000392 352.696,4.69599296 352.696,6.104 C352.696,7.19200544 352.935998,8.135996 353.416,8.936 C353.896002,9.736004 354.599995,10.5119962 355.528,11.264 C356.456005,12.0160038 357.975989,13.1279926 360.088,14.6 C360.280001,14.6960005 360.463999,14.8079994 360.64,14.936 C360.816001,15.0640006 360.983999,15.1919994 361.144,15.32 C362.904009,16.5360061 364.311995,17.6159953 365.368,18.56 C366.424005,19.5040047 367.279997,20.5999938 367.936,21.848 C368.592003,23.0960062 368.92,24.5359918 368.92,26.168 C368.92,28.2480104 368.336006,29.9999929 367.168,31.424 C365.999994,32.8480071 364.42401,33.9119965 362.44,34.616 C360.45599,35.3200035 358.264012,35.672 355.864,35.672 C353.91199,35.672 352.288006,35.5120016 350.992,35.192 C349.695994,34.8719984 348.488006,34.4400027 347.368,33.896 C346.663996,33.4479978 346.120002,33.224 345.736,33.224 C345.447999,33.224 345.224001,33.3919983 345.064,33.728 C344.903999,34.0640017 344.776,34.5999963 344.68,35.336 L343.576,35.336 C343.704001,33.1599891 343.768,28.5200355 343.768,21.416 L344.872,21.416 C345.096001,25.224019 345.895993,28.3119882 347.272,30.68 C348.648007,33.0480118 350.759986,34.232 353.608,34.232 C355.368009,34.232 356.767995,33.8160042 357.808,32.984 C358.848005,32.1519958 359.368,31.0000074 359.368,29.528 C359.368,27.7039909 358.800006,26.1440065 357.664,24.848 C356.527994,23.5519935 354.760012,22.104008 352.36,20.504 C350.43999,19.2239936 348.904006,18.1040048 347.752,17.144 C346.599994,16.1839952 345.656004,15.0720063 344.92,13.808 C344.183996,12.5439937 343.816,11.0800083 343.816,9.416 C343.816,7.39998992 344.359995,5.7120068 345.448,4.352 C346.536005,2.9919932 347.983991,1.98400328 349.792,1.328 C351.600009,0.67199672 353.575989,0.344 355.72,0.344 Z" id="VIKING-TOURS"></path>
        </g>
    </g>
</svg>